<svg id="Layer_1" data-name="Layer 1" xmlns="http://www.w3.org/2000/svg" viewBox="0 0 346.54 89.59"><defs><style>.cls-1{fill:#ed1c24;}.cls-2{fill:#fff200;}.cls-3{fill:#00a14b;}.cls-4{fill:#00aeef;}.cls-5{fill:#2e3192;}.cls-6{fill:#a7a9ac;}</style></defs><path class="cls-1" d="M51.06,87.61c0-19.82,12.06-31.07,27.47-31.07a23.53,23.53,0,0,1,17.32,7.54l-7.38,8.31a12.81,12.81,0,0,0-9.94-4.26c-7.78,0-13.61,7.16-13.61,19,0,12.19,4.8,19.27,14.15,19.27a9,9,0,0,0,5.75-1.76V94.44H76.21V83.5H96.85v27.35A28.43,28.43,0,0,1,78.29,118C63.14,118,51.06,107.61,51.06,87.61Z" transform="translate(-51.06 -53.19)"/><path class="cls-2" d="M106,94.39c0-15,11.11-23.69,23-23.69s23,8.66,23,23.69S140.9,118,129,118,106,109.37,106,94.39Zm32.34,0c0-7.83-3.15-12.88-9.32-12.88s-9.31,5-9.31,12.88,3.15,12.83,9.31,12.83S138.31,102.19,138.31,94.39Z" transform="translate(-51.06 -53.19)"/><path class="cls-3" d="M160.57,94.39c0-15,11.11-23.69,23-23.69s23,8.66,23,23.69S195.5,118,183.59,118,160.57,109.37,160.57,94.39Zm32.33,0c0-7.83-3.14-12.88-9.31-12.88s-9.31,5-9.31,12.88,3.15,12.83,9.31,12.83S192.9,102.19,192.9,94.39Z" transform="translate(-51.06 -53.19)"/><path class="cls-4" d="M215.6,124.58c0-3.68,2.42-6.71,7-9v-.37a8.64,8.64,0,0,1-4.55-7.67c0-3,2.18-6.27,5.41-8.48v-.37a13.75,13.75,0,0,1-6-11.59c0-10.83,9.12-16.36,19.35-16.36a23.53,23.53,0,0,1,7.4,1.09h18.36v9.84h-9.1a10.41,10.41,0,0,1,2,5.9c0,10.38-8.15,15.13-18.62,15.13a23.19,23.19,0,0,1-6.22-.92c-1.39,1-2,1.82-2,3.33,0,2.4,2.38,3.39,7.68,3.39h8.34c11.84,0,18.35,3.3,18.35,11.42,0,9.4-10.47,16.26-26.93,16.26C224.31,136.14,215.6,132.66,215.6,124.58Zm34.63-2.4c0-2.87-2.77-3.47-7.93-3.47h-5.69a28.22,28.22,0,0,1-6.87-.59c-2.28,1.42-3.21,2.79-3.21,4.41,0,3.4,4.42,5.13,11.45,5.13C245.24,127.66,250.23,125.29,250.23,122.18Zm-6.54-35.12c0-4.75-3.1-7.36-6.84-7.36s-6.78,2.61-6.78,7.36c0,4.92,3.06,7.51,6.78,7.51S243.69,92,243.69,87.06Z" transform="translate(-51.06 -53.19)"/><path class="cls-1" d="M284.2,99.28V63.69H270V53.19H297.6V99.83c0,5.58,3.59,7.39,7.36,7.39a19.52,19.52,0,0,0,7-1.48l3,9.85c-4.69,1.53-7.86,2.44-13.47,2.44C290.11,118,284.2,110.73,284.2,99.28Z" transform="translate(-51.06 -53.19)"/><path class="cls-5" d="M325.1,94.34c0-14.78,11.39-23.64,23.48-23.64,13.93,0,21.26,9.39,21.26,21.67a38.82,38.82,0,0,1-.56,6H335v-9h25.19l-2.11,2.56c0-7.25-3.15-11.06-9.08-11.06-6.62,0-11,4.48-11,13.46,0,9.36,5.1,13.48,13.88,13.48a24.71,24.71,0,0,0,11.63-3.14l4.44,8.07a34.52,34.52,0,0,1-17.9,5.28C336.05,118,325.1,109.34,325.1,94.34Z" transform="translate(-51.06 -53.19)"/><path class="cls-6" d="M276.6,131.05h1.88l.18,1h.06a1.9,1.9,0,0,1,1.82-1.24,1.51,1.51,0,0,1,1.47,1.38,2,2,0,0,1,1.86-1.38c1.21,0,1.89,1,1.89,2.72v5.91h-2.38v-5.74c0-.52-.12-.77-.45-.77s-.54.27-.78.82v5.69H280.2v-5.74c0-.52-.15-.77-.48-.77s-.53.27-.75.82v5.69H276.6Z" transform="translate(-51.06 -53.19)"/><path class="cls-6" d="M287.34,142.61l.45-1.91a2.16,2.16,0,0,0,.65.11,1.73,1.73,0,0,0,1.77-1.1l.16-.44-3.64-8.22h2.48l1.42,3.62c.3.8.57,1.65.83,2.54h.07c.23-.85.52-1.71.78-2.54l1.23-3.62h2.36l-3.32,8.52c-.82,2.12-1.82,3.21-4,3.21A4.84,4.84,0,0,1,287.34,142.61Z" transform="translate(-51.06 -53.19)"/><path class="cls-6" d="M307.83,131.05h2l.18.86h.06a3.89,3.89,0,0,1,2.51-1.06c2.11,0,3.38,1.68,3.38,4.29,0,2.89-1.77,4.55-3.66,4.55a3,3,0,0,1-2.07-.91h-.06l.12,1.36v2.47h-2.5Zm5.61,4.11c0-1.51-.5-2.26-1.56-2.26a2.08,2.08,0,0,0-1.55.78v3.4a2.22,2.22,0,0,0,1.44.56C312.7,137.64,313.44,136.91,313.44,135.16Z" transform="translate(-51.06 -53.19)"/><path class="cls-6" d="M317.6,135.27a4.3,4.3,0,1,1,4.3,4.42A4.23,4.23,0,0,1,317.6,135.27Zm6,0c0-1.46-.59-2.4-1.74-2.4s-1.74.94-1.74,2.4.59,2.4,1.74,2.4S323.64,136.73,323.64,135.27Z" transform="translate(-51.06 -53.19)"/><path class="cls-6" d="M329,131.05H331l.2,1.85h0a3.93,3.93,0,0,1,3.42-2.05,3.42,3.42,0,0,1,1.62.34l-.5,2.1a4.49,4.49,0,0,0-1.5-.25,3.14,3.14,0,0,0-2.85,2.06v4.38H329Z" transform="translate(-51.06 -53.19)"/><path class="cls-6" d="M340.16,136v-3H338v-1.86l2.24-.1.32-2.58h2.07v2.58h3.55v2h-3.55v3c0,1.28.54,1.76,1.77,1.76a5,5,0,0,0,1.66-.3l.46,1.81a9.37,9.37,0,0,1-2.76.46C341.12,139.69,340.16,138.2,340.16,136Z" transform="translate(-51.06 -53.19)"/><path class="cls-6" d="M348.8,131.15l2.31-.1h5.31v2H348.8Zm2.22-.32c0-1.93,1.13-3.46,3.78-3.46a8.3,8.3,0,0,1,2.55.45l-.48,1.84a5.06,5.06,0,0,0-1.77-.33c-1.07,0-1.58.47-1.58,1.49v8.66H351Z" transform="translate(-51.06 -53.19)"/><path class="cls-6" d="M358.4,135.27a4.3,4.3,0,1,1,4.3,4.42A4.23,4.23,0,0,1,358.4,135.27Zm6,0c0-1.46-.59-2.4-1.74-2.4s-1.74.94-1.74,2.4.59,2.4,1.74,2.4S364.44,136.73,364.44,135.27Z" transform="translate(-51.06 -53.19)"/><path class="cls-6" d="M371.3,136.19v-6.65h-2.66v-2h5.16v8.71a1.25,1.25,0,0,0,1.37,1.38,3.6,3.6,0,0,0,1.32-.28l.55,1.84a7,7,0,0,1-2.52.46C372.4,139.69,371.3,138.32,371.3,136.19Z" transform="translate(-51.06 -53.19)"/><path class="cls-6" d="M382.73,133h-3.4v-2h5.9v8.43h-2.5Zm-.52-4.81a1.66,1.66,0,0,1,3.32,0,1.67,1.67,0,0,1-3.32,0Z" transform="translate(-51.06 -53.19)"/><path class="cls-6" d="M389,135.27a4.3,4.3,0,1,1,4.3,4.42A4.23,4.23,0,0,1,389,135.27Zm6,0c0-1.46-.59-2.4-1.74-2.4s-1.74.94-1.74,2.4.59,2.4,1.74,2.4S395,136.73,395,135.27Z" transform="translate(-51.06 -53.19)"/></svg>